<svg width="20" height="24" viewBox="0 0 20 24" fill="none" xmlns="http://www.w3.org/2000/svg">
<path fill-rule="evenodd" clip-rule="evenodd" d="M4.15507 6.50338V6.95861H2.30752C1.75711 6.95861 1.28998 7.36228 1.21019 7.90688L0.941049 9.74374C0.415484 13.3307 0.415484 16.9752 0.941049 20.5621C1.17654 22.1694 2.4726 23.4119 4.08834 23.5795L4.86234 23.6598C8.27909 24.0141 11.7233 24.0141 15.1401 23.6598L15.9141 23.5795C17.5298 23.4119 18.8259 22.1694 19.0614 20.5621C19.5869 16.9752 19.5869 13.3307 19.0614 9.74375L18.7922 7.90688C18.7125 7.36229 18.2453 6.95861 17.6949 6.95861H15.8474V6.50338C15.8474 3.83539 14.0411 1.50586 11.4572 0.841422C10.5021 0.595828 9.50037 0.595828 8.54529 0.841422C5.96136 1.50586 4.15507 3.83538 4.15507 6.50338ZM10.9974 2.62941C10.3439 2.46137 9.65854 2.46137 9.00506 2.62941C7.2371 3.08403 6.00122 4.67791 6.00122 6.50338V6.95861H14.0012V6.50338C14.0012 4.67791 12.7653 3.08403 10.9974 2.62941ZM6.00122 8.80476C6.00122 8.29496 5.58794 7.88169 5.07814 7.88169C4.56834 7.88169 4.15507 8.29496 4.15507 8.80476V11.2663C4.15507 11.7761 4.56834 12.1894 5.07814 12.1894C5.58794 12.1894 6.00122 11.7761 6.00122 11.2663V8.80476ZM15.8474 8.80476C15.8474 8.29496 15.4341 7.88169 14.9243 7.88169C14.4145 7.88169 14.0012 8.29496 14.0012 8.80476V11.2663C14.0012 11.7761 14.4145 12.1894 14.9243 12.1894C15.4341 12.1894 15.8474 11.7761 15.8474 11.2663V8.80476Z" fill="#5C45D9"/>
</svg>
