<svg width="39" height="35" viewBox="0 0 39 35" fill="none" xmlns="http://www.w3.org/2000/svg">
<path fill-rule="evenodd" clip-rule="evenodd" d="M18.564 2.8969C13.4427 -0.145911 7.17939 -0.642881 1.63416 1.55358C0.826488 1.8735 0.296875 2.64813 0.296875 3.50954V24.6207C0.296875 26.0349 1.73918 27.0018 3.06509 26.4766C7.60606 24.678 12.7351 25.0849 16.9289 27.5767L19.0048 28.8101C19.1631 28.9041 19.3325 28.9453 19.4969 28.9424C19.6613 28.9453 19.8306 28.9041 19.9889 28.8101L22.0649 27.5767C26.2587 25.0849 31.3877 24.678 35.9287 26.4766C37.2546 27.0018 38.6969 26.0349 38.6969 24.6207V3.50954C38.6969 2.64813 38.1673 1.8735 37.3596 1.55358C31.8144 -0.642881 25.551 -0.145911 20.4297 2.8969L19.4969 3.45115L18.564 2.8969ZM20.8683 7.22309C20.8683 6.47306 20.2543 5.86504 19.4969 5.86504C18.7395 5.86504 18.1254 6.47306 18.1254 7.22309V24.4251C18.1254 25.1752 18.7395 25.7832 19.4969 25.7832C20.2543 25.7832 20.8683 25.1752 20.8683 24.4251V7.22309Z" fill="#295D4E"/>
<path d="M2.53658 29.9338C6.23735 27.7961 10.8135 27.7961 14.5143 29.9338L16.5024 31.0823C18.3528 32.1511 20.6409 32.1511 22.4913 31.0823L24.4794 29.9338C28.1802 27.7961 32.7564 27.7961 36.4572 29.9338L36.645 30.0423C37.2993 30.4203 37.5203 31.2518 37.1386 31.8997C36.757 32.5476 35.9172 32.7664 35.263 32.3885L35.0751 32.2799C32.2284 30.6355 28.7082 30.6355 25.8615 32.2799L23.8734 33.4284C21.169 34.9906 17.8248 34.9906 15.1204 33.4284L13.1323 32.2799C10.2855 30.6355 6.76537 30.6355 3.91863 32.2799L3.73076 32.3885C3.07651 32.7664 2.23676 32.5476 1.85512 31.8997C1.47348 31.2518 1.69447 30.4203 2.34871 30.0423L2.53658 29.9338Z" fill="#295D4E"/>
</svg>
