<svg width="148" height="46" viewBox="0 0 148 46" fill="none" xmlns="http://www.w3.org/2000/svg">
<path d="M47.04 33V12H55.47C57.65 12 59.31 12.51 60.45 13.53C61.61 14.53 62.19 15.82 62.19 17.4C62.19 18.72 61.83 19.78 61.11 20.58C60.41 21.36 59.55 21.89 58.53 22.17C59.73 22.41 60.72 23.01 61.5 23.97C62.28 24.91 62.67 26.01 62.67 27.27C62.67 28.93 62.07 30.3 60.87 31.38C59.67 32.46 57.97 33 55.77 33H47.04ZM50.88 20.82H54.9C55.98 20.82 56.81 20.57 57.39 20.07C57.97 19.57 58.26 18.86 58.26 17.94C58.26 17.06 57.97 16.37 57.39 15.87C56.83 15.35 55.98 15.09 54.84 15.09H50.88V20.82ZM50.88 29.88H55.17C56.31 29.88 57.19 29.62 57.81 29.1C58.45 28.56 58.77 27.81 58.77 26.85C58.77 25.87 58.44 25.1 57.78 24.54C57.12 23.98 56.23 23.7 55.11 23.7H50.88V29.88ZM71.4558 33.36C69.5958 33.36 68.1558 32.78 67.1358 31.62C66.1358 30.46 65.6358 28.76 65.6358 26.52V18.12H69.4458V26.16C69.4458 27.44 69.7058 28.42 70.2258 29.1C70.7458 29.78 71.5658 30.12 72.6858 30.12C73.7458 30.12 74.6158 29.74 75.2958 28.98C75.9958 28.22 76.3458 27.16 76.3458 25.8V18.12H80.1858V33H76.7958L76.4958 30.48C76.0358 31.36 75.3658 32.06 74.4858 32.58C73.6258 33.1 72.6158 33.36 71.4558 33.36ZM92.9477 33.36C91.8277 33.36 90.8477 33.15 90.0077 32.73C89.1677 32.31 88.4877 31.72 87.9677 30.96L87.5477 33H84.1277V11.4H87.9677V20.25C88.4477 19.59 89.0777 19.01 89.8577 18.51C90.6577 18.01 91.6877 17.76 92.9477 17.76C94.3477 17.76 95.5977 18.1 96.6977 18.78C97.7977 19.46 98.6677 20.39 99.3077 21.57C99.9477 22.75 100.268 24.09 100.268 25.59C100.268 27.09 99.9477 28.43 99.3077 29.61C98.6677 30.77 97.7977 31.69 96.6977 32.37C95.5977 33.03 94.3477 33.36 92.9477 33.36ZM92.1377 30C93.3577 30 94.3677 29.59 95.1677 28.77C95.9677 27.95 96.3677 26.89 96.3677 25.59C96.3677 24.29 95.9677 23.22 95.1677 22.38C94.3677 21.54 93.3577 21.12 92.1377 21.12C90.8977 21.12 89.8777 21.54 89.0777 22.38C88.2977 23.2 87.9077 24.26 87.9077 25.56C87.9077 26.86 88.2977 27.93 89.0777 28.77C89.8777 29.59 90.8977 30 92.1377 30ZM112.518 33.36C111.398 33.36 110.418 33.15 109.578 32.73C108.738 32.31 108.058 31.72 107.538 30.96L107.118 33H103.698V11.4H107.538V20.25C108.018 19.59 108.648 19.01 109.428 18.51C110.228 18.01 111.258 17.76 112.518 17.76C113.918 17.76 115.168 18.1 116.268 18.78C117.368 19.46 118.238 20.39 118.878 21.57C119.518 22.75 119.838 24.09 119.838 25.59C119.838 27.09 119.518 28.43 118.878 29.61C118.238 30.77 117.368 31.69 116.268 32.37C115.168 33.03 113.918 33.36 112.518 33.36ZM111.708 30C112.928 30 113.938 29.59 114.738 28.77C115.538 27.95 115.938 26.89 115.938 25.59C115.938 24.29 115.538 23.22 114.738 22.38C113.938 21.54 112.928 21.12 111.708 21.12C110.468 21.12 109.448 21.54 108.648 22.38C107.868 23.2 107.478 24.26 107.478 25.56C107.478 26.86 107.868 27.93 108.648 28.77C109.448 29.59 110.468 30 111.708 30ZM123.268 33V11.4H127.108V33H123.268ZM138.262 33.36C136.762 33.36 135.432 33.04 134.272 32.4C133.112 31.76 132.202 30.86 131.542 29.7C130.882 28.54 130.552 27.2 130.552 25.68C130.552 24.14 130.872 22.77 131.512 21.57C132.172 20.37 133.072 19.44 134.212 18.78C135.372 18.1 136.732 17.76 138.292 17.76C139.752 17.76 141.042 18.08 142.162 18.72C143.282 19.36 144.152 20.24 144.772 21.36C145.412 22.46 145.732 23.69 145.732 25.05C145.732 25.27 145.722 25.5 145.702 25.74C145.702 25.98 145.692 26.23 145.672 26.49H134.362C134.442 27.65 134.842 28.56 135.562 29.22C136.302 29.88 137.192 30.21 138.232 30.21C139.012 30.21 139.662 30.04 140.182 29.7C140.722 29.34 141.122 28.88 141.382 28.32H145.282C145.002 29.26 144.532 30.12 143.872 30.9C143.232 31.66 142.432 32.26 141.472 32.7C140.532 33.14 139.462 33.36 138.262 33.36ZM138.292 20.88C137.352 20.88 136.522 21.15 135.802 21.69C135.082 22.21 134.622 23.01 134.422 24.09H141.832C141.772 23.11 141.412 22.33 140.752 21.75C140.092 21.17 139.272 20.88 138.292 20.88Z" fill="#242424"/>
<path d="M33.1193 16.4335C32.4712 14.9513 31.6135 13.57 30.5725 12.332C29.0336 10.4473 27.113 8.90996 24.9374 7.82118C22.7617 6.7324 20.3801 6.11686 17.9495 6.01508C15.5188 5.9133 13.0942 6.32758 10.8351 7.23066C8.57606 8.13373 6.53381 9.50513 4.84279 11.2546C3.15177 13.004 1.85031 15.0919 1.02408 17.3807C0.197841 19.6696 -0.134439 22.1075 0.0491075 24.534C0.232655 26.9605 0.927867 29.3207 2.08899 31.4591C3.2501 33.5975 4.8508 35.4657 6.78573 36.9408C8.02728 37.9061 9.39916 38.6909 10.8606 39.2717C12.9095 40.1116 15.1023 40.5442 17.3166 40.5455C21.8873 40.5353 26.2675 38.7129 29.4971 35.4776C32.7266 32.2424 34.5421 27.8582 34.5454 23.2862C34.5488 20.9279 34.0632 18.5945 33.1193 16.4335ZM17.3039 9.51703C19.2923 9.51682 21.2568 9.95156 23.0595 10.7908C22.6199 10.9808 22.1577 11.1135 21.6843 11.1856C20.1264 11.4112 18.6833 12.1347 17.5702 13.2481C16.4572 14.3614 15.7339 15.805 15.5084 17.3633C15.4094 18.2372 15.012 19.0503 14.3834 19.6652C13.7547 20.2801 12.9332 20.6593 12.0575 20.7387C10.4997 20.9643 9.05651 21.6878 7.94345 22.8011C6.8304 23.9145 6.10714 25.3581 5.88163 26.9164C5.80528 27.7474 5.45084 28.5283 4.87566 29.1327C3.88325 27.0352 3.43744 24.7206 3.5797 22.4044C3.72197 20.0882 4.44768 17.8457 5.68931 15.8854C6.93094 13.9252 8.64814 12.311 10.6811 11.1931C12.714 10.0752 14.9967 9.48983 17.3166 9.49156L17.3039 9.51703ZM6.773 32.2024C6.9258 32.0623 7.07861 31.9349 7.23142 31.7821C8.36428 30.6834 9.09146 29.2331 9.29429 27.6679C9.37653 26.788 9.76926 25.9662 10.4021 25.3497C11.0111 24.7156 11.8308 24.326 12.707 24.2543C14.2648 24.0287 15.708 23.3052 16.821 22.1919C17.9341 21.0785 18.6573 19.6349 18.8829 18.0766C18.9379 17.1563 19.3327 16.2893 19.9907 15.6437C20.6147 15.022 21.4422 14.6465 22.321 14.5865C23.7522 14.3896 25.0869 13.7531 26.1411 12.7651C27.3415 13.7612 28.3585 14.9596 29.1463 16.3061C29.0979 16.3715 29.0424 16.4313 28.9808 16.4844C28.3729 17.1241 27.5543 17.5222 26.6759 17.6053C25.1165 17.827 23.6712 18.5491 22.5574 19.6632C21.4436 20.7773 20.7216 22.2231 20.5 23.783C20.4103 24.6599 20.0203 25.4787 19.396 26.1009C18.7717 26.723 17.9516 27.1101 17.0747 27.1966C15.5122 27.4205 14.0637 28.1425 12.9442 29.2554C11.8247 30.3683 11.094 31.8128 10.8606 33.3743C10.792 33.9968 10.5783 34.5945 10.2366 35.1193C8.9301 34.3434 7.75998 33.358 6.773 32.2024ZM17.3039 37.1191C16.0117 37.1205 14.7258 36.9404 13.4837 36.5841C13.9086 35.7918 14.1848 34.9284 14.2987 34.0366C14.3879 33.1617 14.7761 32.3443 15.3978 31.7225C16.0195 31.1006 16.8367 30.7123 17.7113 30.623C19.2715 30.3999 20.7175 29.6776 21.8331 28.564C22.9487 27.4504 23.6738 26.0055 23.9 24.4453C23.9892 23.5704 24.3774 22.753 24.9991 22.1312C25.6208 21.5093 26.438 21.121 27.3126 21.0317C28.4867 20.8789 29.6058 20.4417 30.5725 19.7579C31.1093 21.7933 31.1729 23.9245 30.7584 25.9883C30.3439 28.052 29.4623 29.9933 28.1812 31.6633C26.9002 33.3333 25.2538 34.6876 23.3683 35.6223C21.4827 36.557 19.4082 37.0472 17.3039 37.0554V37.1191Z" fill="#242424"/>
</svg>
