<svg width="43" height="55" viewBox="0 0 43 55" fill="none" xmlns="http://www.w3.org/2000/svg">
<path fill-rule="evenodd" clip-rule="evenodd" d="M21.4987 4C12.2293 4 4.83203 11.246 4.83203 20.0425C4.83203 25.3881 7.02117 29.9982 10.9263 32.8694C11.787 33.5022 12.5233 34.4459 12.8053 35.6432C13.0367 36.6259 13.3016 37.8232 13.5639 39.0921H19.4987V36.2056C19.4987 35.8251 19.6072 35.4524 19.8116 35.1315L21.9498 31.7731L17.1523 28.0055C16.3437 27.3704 16.1483 26.2258 16.7005 25.3584L19.8116 20.4719C20.4048 19.5402 21.6411 19.2657 22.5728 19.859C23.5046 20.4522 23.779 21.6884 23.1858 22.6202L21.0476 25.9785L25.8451 29.7461C26.6537 30.3812 26.8491 31.5259 26.2969 32.3932L23.4987 36.7882V39.0921H29.4334C29.6958 37.8232 29.9607 36.6259 30.1921 35.6432C30.4741 34.4459 31.2104 33.5022 32.0711 32.8694C35.9762 29.9983 38.1654 25.3881 38.1654 20.0425C38.1654 11.246 30.7681 4 21.4987 4ZM28.6686 43.0921H14.3288C14.6232 44.7923 14.8542 46.4025 14.9241 47.5585C14.9978 48.7755 15.9074 49.8663 17.2486 50.156L17.7712 50.2689C20.2257 50.7992 22.7717 50.7992 25.2262 50.2689L25.7488 50.156C27.09 49.8663 27.9996 48.7755 28.0733 47.5585C28.1432 46.4025 28.3742 44.7923 28.6686 43.0921ZM0.832031 20.0425C0.832031 8.90977 10.1495 0 21.4987 0C32.8479 0 42.1654 8.90977 42.1654 20.0425C42.1654 26.5061 39.4892 32.3802 34.4405 36.0921C34.2103 36.2614 34.114 36.4396 34.0856 36.5602C33.7699 37.9006 33.3854 39.6746 33.0347 41.4745C32.5473 43.9765 32.1505 46.4033 32.066 47.8C31.8791 50.8885 29.6069 53.4148 26.5935 54.0658L26.0709 54.1787C23.0597 54.8293 19.9377 54.8293 16.9265 54.1787L16.4039 54.0658C13.3905 53.4148 11.1183 50.8885 10.9314 47.8C10.8469 46.4033 10.4501 43.9765 9.96268 41.4745C9.61203 39.6746 9.22749 37.9006 8.9118 36.5602C8.88338 36.4396 8.78711 36.2614 8.55685 36.0921C3.50822 32.3802 0.832031 26.5061 0.832031 20.0425Z" fill="#5C45D9"/>
</svg>
