<svg width="508" height="377" viewBox="0 0 508 377" fill="none" xmlns="http://www.w3.org/2000/svg">
<path d="M0 20C0 8.95431 8.9543 0 20 0H118C129.046 0 138 8.95431 138 20V377H0V20Z" fill="#F2F9FB"/>
<path d="M41.666 67.456C39.8167 67.456 38.2587 67.1013 36.992 66.392C35.7253 65.6573 34.7373 64.7073 34.028 63.542C33.3187 62.3767 32.9007 61.1227 32.774 59.78H37.296C37.4987 60.9453 37.98 61.8447 38.74 62.478C39.5253 63.1113 40.5133 63.428 41.704 63.428C43.4013 63.428 44.7693 62.6553 45.808 61.11C46.8467 59.5393 47.404 57.158 47.48 53.966C46.872 55.0047 45.9473 55.866 44.706 56.55C43.49 57.234 42.1473 57.576 40.678 57.576C39.2087 57.576 37.828 57.2213 36.536 56.512C35.244 55.8027 34.1927 54.802 33.382 53.51C32.5713 52.218 32.166 50.698 32.166 48.95C32.166 47.354 32.5587 45.872 33.344 44.504C34.1293 43.136 35.2187 42.034 36.612 41.198C38.0053 40.362 39.6393 39.944 41.514 39.944C43.5153 39.944 45.2 40.3113 46.568 41.046C47.936 41.7807 49.0253 42.7687 49.836 44.01C50.672 45.2513 51.2673 46.632 51.622 48.152C52.002 49.672 52.192 51.23 52.192 52.826C52.192 55.79 51.774 58.374 50.938 60.578C50.1273 62.7567 48.924 64.454 47.328 65.67C45.7573 66.8607 43.87 67.456 41.666 67.456ZM41.818 53.472C42.7553 53.472 43.604 53.2693 44.364 52.864C45.124 52.4333 45.7193 51.876 46.15 51.192C46.5807 50.4827 46.796 49.6973 46.796 48.836C46.796 47.468 46.3147 46.3407 45.352 45.454C44.4147 44.5673 43.224 44.124 41.78 44.124C40.3613 44.124 39.1833 44.5673 38.246 45.454C37.3087 46.3153 36.84 47.4173 36.84 48.76C36.84 50.1787 37.3087 51.3187 38.246 52.18C39.1833 53.0413 40.374 53.472 41.818 53.472ZM65.72 67.456C63.896 67.456 62.2493 67.1393 60.78 66.506C59.3107 65.8473 58.1327 64.9227 57.246 63.732C56.3847 62.5413 55.954 61.1607 55.954 59.59C55.954 57.9687 56.372 56.55 57.208 55.334C58.0693 54.118 59.1967 53.244 60.59 52.712C59.374 52.18 58.4113 51.42 57.702 50.432C56.9927 49.4187 56.638 48.2913 56.638 47.05C56.638 45.7833 56.98 44.618 57.664 43.554C58.348 42.4647 59.3613 41.5907 60.704 40.932C62.072 40.2733 63.744 39.944 65.72 39.944C67.696 39.944 69.3553 40.2733 70.698 40.932C72.0407 41.5907 73.054 42.4647 73.738 43.554C74.422 44.618 74.764 45.7833 74.764 47.05C74.764 48.266 74.3967 49.3933 73.662 50.432C72.9527 51.4453 72.0027 52.2053 70.812 52.712C72.2307 53.244 73.358 54.118 74.194 55.334C75.03 56.55 75.448 57.9687 75.448 59.59C75.448 61.1607 75.0173 62.5413 74.156 63.732C73.2947 64.9227 72.1167 65.8473 70.622 66.506C69.1527 67.1393 67.5187 67.456 65.72 67.456ZM65.72 51.268C67.0373 51.268 68.076 50.926 68.836 50.242C69.596 49.558 69.976 48.684 69.976 47.62C69.976 46.4547 69.596 45.5427 68.836 44.884C68.1013 44.2253 67.0627 43.896 65.72 43.896C64.352 43.896 63.3007 44.2253 62.566 44.884C61.8313 45.5427 61.464 46.4547 61.464 47.62C61.464 48.7093 61.8313 49.596 62.566 50.28C63.326 50.9387 64.3773 51.268 65.72 51.268ZM65.72 63.39C67.3413 63.39 68.57 62.9973 69.406 62.212C70.242 61.4013 70.66 60.388 70.66 59.172C70.66 57.8293 70.2167 56.778 69.33 56.018C68.4687 55.258 67.2653 54.878 65.72 54.878C64.1747 54.878 62.946 55.258 62.034 56.018C61.1473 56.778 60.704 57.8293 60.704 59.172C60.704 60.388 61.122 61.4013 61.958 62.212C62.8193 62.9973 64.0733 63.39 65.72 63.39ZM85.7044 53.472C84.4884 53.472 83.3864 53.206 82.3984 52.674C81.4104 52.1167 80.6251 51.3313 80.0424 50.318C79.4598 49.3047 79.1684 48.1013 79.1684 46.708C79.1684 45.3147 79.4598 44.1113 80.0424 43.098C80.6251 42.0847 81.4104 41.312 82.3984 40.78C83.3864 40.2227 84.5011 39.944 85.7424 39.944C86.9584 39.944 88.0478 40.2227 89.0104 40.78C89.9984 41.312 90.7838 42.0847 91.3664 43.098C91.9491 44.1113 92.2404 45.3147 92.2404 46.708C92.2404 48.1013 91.9491 49.3047 91.3664 50.318C90.7838 51.3313 89.9984 52.1167 89.0104 52.674C88.0224 53.206 86.9204 53.472 85.7044 53.472ZM84.2604 67L99.2704 40.4H104.02L89.0104 67H84.2604ZM85.7044 50.09C86.4391 50.09 87.0724 49.8113 87.6044 49.254C88.1364 48.6713 88.4024 47.8227 88.4024 46.708C88.4024 45.5933 88.1364 44.7447 87.6044 44.162C87.0978 43.5793 86.4644 43.288 85.7044 43.288C84.9444 43.288 84.2984 43.5793 83.7664 44.162C83.2598 44.7447 83.0064 45.5933 83.0064 46.708C83.0064 47.8227 83.2598 48.6713 83.7664 49.254C84.2984 49.8113 84.9444 50.09 85.7044 50.09ZM102.728 67.456C101.512 67.456 100.41 67.19 99.4224 66.658C98.4344 66.1007 97.6491 65.3153 97.0664 64.302C96.4838 63.2887 96.1924 62.0853 96.1924 60.692C96.1924 59.2987 96.4838 58.108 97.0664 57.12C97.6491 56.1067 98.4344 55.334 99.4224 54.802C100.41 54.2447 101.525 53.966 102.766 53.966C103.982 53.966 105.072 54.2447 106.034 54.802C107.022 55.334 107.808 56.1067 108.39 57.12C108.973 58.108 109.264 59.2987 109.264 60.692C109.264 62.0853 108.973 63.2887 108.39 64.302C107.808 65.3153 107.022 66.1007 106.034 66.658C105.072 67.19 103.97 67.456 102.728 67.456ZM102.728 64.074C103.488 64.074 104.122 63.7953 104.628 63.238C105.16 62.6553 105.426 61.8067 105.426 60.692C105.426 59.5773 105.16 58.7287 104.628 58.146C104.122 57.5633 103.488 57.272 102.728 57.272C101.968 57.272 101.322 57.5633 100.79 58.146C100.284 58.7287 100.03 59.5773 100.03 60.692C100.03 61.8067 100.284 62.6553 100.79 63.238C101.322 63.7953 101.968 64.074 102.728 64.074Z" fill="#295D4E"/>
<path d="M188 181C188 169.954 196.954 161 208 161H306C317.046 161 326 169.954 326 181V377H188V181Z" fill="#537C71"/>
<path d="M218.938 225V221.466C220.559 220.123 222.13 218.793 223.65 217.476C225.195 216.159 226.563 214.854 227.754 213.562C228.97 212.27 229.933 211.016 230.642 209.8C231.377 208.559 231.744 207.355 231.744 206.19C231.744 205.101 231.44 204.138 230.832 203.302C230.249 202.466 229.274 202.048 227.906 202.048C226.513 202.048 225.461 202.504 224.752 203.416C224.043 204.328 223.688 205.43 223.688 206.722H218.976C219.027 204.771 219.457 203.15 220.268 201.858C221.079 200.541 222.155 199.565 223.498 198.932C224.841 198.273 226.348 197.944 228.02 197.944C230.731 197.944 232.833 198.691 234.328 200.186C235.848 201.655 236.608 203.568 236.608 205.924C236.608 207.393 236.266 208.825 235.582 210.218C234.923 211.611 234.049 212.954 232.96 214.246C231.871 215.538 230.693 216.754 229.426 217.894C228.159 219.009 226.931 220.047 225.74 221.01H237.254V225H218.938ZM252.013 225.456C249.556 225.456 247.453 224.886 245.705 223.746C243.957 222.581 242.602 220.972 241.639 218.92C240.702 216.843 240.233 214.436 240.233 211.7C240.233 208.989 240.702 206.595 241.639 204.518C242.602 202.441 243.957 200.832 245.705 199.692C247.453 198.527 249.556 197.944 252.013 197.944C254.471 197.944 256.573 198.527 258.321 199.692C260.069 200.832 261.412 202.441 262.349 204.518C263.312 206.595 263.793 208.989 263.793 211.7C263.793 214.436 263.312 216.843 262.349 218.92C261.412 220.972 260.069 222.581 258.321 223.746C256.573 224.886 254.471 225.456 252.013 225.456ZM252.013 221.086C254.015 221.086 255.649 220.25 256.915 218.578C258.182 216.906 258.815 214.613 258.815 211.7C258.815 208.787 258.182 206.494 256.915 204.822C255.649 203.15 254.015 202.314 252.013 202.314C249.987 202.314 248.34 203.15 247.073 204.822C245.832 206.494 245.211 208.787 245.211 211.7C245.211 214.613 245.832 216.906 247.073 218.578C248.34 220.25 249.987 221.086 252.013 221.086ZM273.558 211.472C272.342 211.472 271.24 211.206 270.252 210.674C269.264 210.117 268.479 209.331 267.896 208.318C267.313 207.305 267.022 206.101 267.022 204.708C267.022 203.315 267.313 202.111 267.896 201.098C268.479 200.085 269.264 199.312 270.252 198.78C271.24 198.223 272.355 197.944 273.596 197.944C274.812 197.944 275.901 198.223 276.864 198.78C277.852 199.312 278.637 200.085 279.22 201.098C279.803 202.111 280.094 203.315 280.094 204.708C280.094 206.101 279.803 207.305 279.22 208.318C278.637 209.331 277.852 210.117 276.864 210.674C275.876 211.206 274.774 211.472 273.558 211.472ZM272.114 225L287.124 198.4H291.874L276.864 225H272.114ZM273.558 208.09C274.293 208.09 274.926 207.811 275.458 207.254C275.99 206.671 276.256 205.823 276.256 204.708C276.256 203.593 275.99 202.745 275.458 202.162C274.951 201.579 274.318 201.288 273.558 201.288C272.798 201.288 272.152 201.579 271.62 202.162C271.113 202.745 270.86 203.593 270.86 204.708C270.86 205.823 271.113 206.671 271.62 207.254C272.152 207.811 272.798 208.09 273.558 208.09ZM290.582 225.456C289.366 225.456 288.264 225.19 287.276 224.658C286.288 224.101 285.503 223.315 284.92 222.302C284.337 221.289 284.046 220.085 284.046 218.692C284.046 217.299 284.337 216.108 284.92 215.12C285.503 214.107 286.288 213.334 287.276 212.802C288.264 212.245 289.379 211.966 290.62 211.966C291.836 211.966 292.925 212.245 293.888 212.802C294.876 213.334 295.661 214.107 296.244 215.12C296.827 216.108 297.118 217.299 297.118 218.692C297.118 220.085 296.827 221.289 296.244 222.302C295.661 223.315 294.876 224.101 293.888 224.658C292.925 225.19 291.823 225.456 290.582 225.456ZM290.582 222.074C291.342 222.074 291.975 221.795 292.482 221.238C293.014 220.655 293.28 219.807 293.28 218.692C293.28 217.577 293.014 216.729 292.482 216.146C291.975 215.563 291.342 215.272 290.582 215.272C289.822 215.272 289.176 215.563 288.644 216.146C288.137 216.729 287.884 217.577 287.884 218.692C287.884 219.807 288.137 220.655 288.644 221.238C289.176 221.795 289.822 222.074 290.582 222.074Z" fill="#F2F9FB"/>
<path d="M370 291C370 279.954 378.954 271 390 271H488C499.046 271 508 279.954 508 291V377H370V291Z" fill="#537C71"/>
<path d="M409.472 337V315.948L405.102 316.974V313.25L411.524 310.4H414.526V337H409.472ZM419.038 337V333.466C420.659 332.123 422.23 330.793 423.75 329.476C425.295 328.159 426.663 326.854 427.854 325.562C429.07 324.27 430.032 323.016 430.742 321.8C431.476 320.559 431.844 319.355 431.844 318.19C431.844 317.101 431.54 316.138 430.932 315.302C430.349 314.466 429.374 314.048 428.006 314.048C426.612 314.048 425.561 314.504 424.852 315.416C424.142 316.328 423.788 317.43 423.788 318.722H419.076C419.126 316.771 419.557 315.15 420.368 313.858C421.178 312.541 422.255 311.565 423.598 310.932C424.94 310.273 426.448 309.944 428.12 309.944C430.83 309.944 432.933 310.691 434.428 312.186C435.948 313.655 436.708 315.568 436.708 317.924C436.708 319.393 436.366 320.825 435.682 322.218C435.023 323.611 434.149 324.954 433.06 326.246C431.97 327.538 430.792 328.754 429.526 329.894C428.259 331.009 427.03 332.047 425.84 333.01H437.354V337H419.038ZM446.865 323.472C445.649 323.472 444.547 323.206 443.559 322.674C442.571 322.117 441.785 321.331 441.203 320.318C440.62 319.305 440.329 318.101 440.329 316.708C440.329 315.315 440.62 314.111 441.203 313.098C441.785 312.085 442.571 311.312 443.559 310.78C444.547 310.223 445.661 309.944 446.903 309.944C448.119 309.944 449.208 310.223 450.171 310.78C451.159 311.312 451.944 312.085 452.527 313.098C453.109 314.111 453.401 315.315 453.401 316.708C453.401 318.101 453.109 319.305 452.527 320.318C451.944 321.331 451.159 322.117 450.171 322.674C449.183 323.206 448.081 323.472 446.865 323.472ZM445.421 337L460.431 310.4H465.181L450.171 337H445.421ZM446.865 320.09C447.599 320.09 448.233 319.811 448.765 319.254C449.297 318.671 449.563 317.823 449.563 316.708C449.563 315.593 449.297 314.745 448.765 314.162C448.258 313.579 447.625 313.288 446.865 313.288C446.105 313.288 445.459 313.579 444.927 314.162C444.42 314.745 444.167 315.593 444.167 316.708C444.167 317.823 444.42 318.671 444.927 319.254C445.459 319.811 446.105 320.09 446.865 320.09ZM463.889 337.456C462.673 337.456 461.571 337.19 460.583 336.658C459.595 336.101 458.809 335.315 458.227 334.302C457.644 333.289 457.353 332.085 457.353 330.692C457.353 329.299 457.644 328.108 458.227 327.12C458.809 326.107 459.595 325.334 460.583 324.802C461.571 324.245 462.685 323.966 463.927 323.966C465.143 323.966 466.232 324.245 467.195 324.802C468.183 325.334 468.968 326.107 469.551 327.12C470.133 328.108 470.425 329.299 470.425 330.692C470.425 332.085 470.133 333.289 469.551 334.302C468.968 335.315 468.183 336.101 467.195 336.658C466.232 337.19 465.13 337.456 463.889 337.456ZM463.889 334.074C464.649 334.074 465.282 333.795 465.789 333.238C466.321 332.655 466.587 331.807 466.587 330.692C466.587 329.577 466.321 328.729 465.789 328.146C465.282 327.563 464.649 327.272 463.889 327.272C463.129 327.272 462.483 327.563 461.951 328.146C461.444 328.729 461.191 329.577 461.191 330.692C461.191 331.807 461.444 332.655 461.951 333.238C462.483 333.795 463.129 334.074 463.889 334.074Z" fill="#F2F9FB"/>
</svg>
