<svg width="104" height="46" viewBox="0 0 104 46" fill="none" xmlns="http://www.w3.org/2000/svg">
<path d="M9.63656 33.36C8.09656 33.36 6.75656 33.08 5.61656 32.52C4.47656 31.96 3.59656 31.18 2.97656 30.18C2.35656 29.18 2.04656 28.02 2.04656 26.7H4.68656C4.68656 27.52 4.87656 28.28 5.25656 28.98C5.63656 29.66 6.18656 30.21 6.90656 30.63C7.64656 31.03 8.55656 31.23 9.63656 31.23C11.0566 31.23 12.1566 30.89 12.9366 30.21C13.7166 29.53 14.1066 28.68 14.1066 27.66C14.1066 26.82 13.9266 26.15 13.5666 25.65C13.2066 25.13 12.7166 24.71 12.0966 24.39C11.4966 24.07 10.7966 23.79 9.99656 23.55C9.21656 23.31 8.39656 23.04 7.53656 22.74C5.91656 22.18 4.71656 21.49 3.93656 20.67C3.15656 19.83 2.76656 18.74 2.76656 17.4C2.74656 16.28 3.00656 15.29 3.54656 14.43C4.08656 13.55 4.84656 12.87 5.82656 12.39C6.82656 11.89 8.00656 11.64 9.36656 11.64C10.7066 11.64 11.8666 11.89 12.8466 12.39C13.8466 12.89 14.6166 13.58 15.1566 14.46C15.7166 15.34 16.0066 16.34 16.0266 17.46H13.3866C13.3866 16.88 13.2366 16.31 12.9366 15.75C12.6366 15.17 12.1766 14.7 11.5566 14.34C10.9566 13.98 10.1966 13.8 9.27656 13.8C8.13656 13.78 7.19656 14.07 6.45656 14.67C5.73656 15.27 5.37656 16.1 5.37656 17.16C5.37656 18.06 5.62656 18.75 6.12656 19.23C6.64656 19.71 7.36656 20.11 8.28656 20.43C9.20656 20.73 10.2666 21.08 11.4666 21.48C12.4666 21.84 13.3666 22.26 14.1666 22.74C14.9666 23.22 15.5866 23.84 16.0266 24.6C16.4866 25.36 16.7166 26.33 16.7166 27.51C16.7166 28.51 16.4566 29.46 15.9366 30.36C15.4166 31.24 14.6266 31.96 13.5666 32.52C12.5266 33.08 11.2166 33.36 9.63656 33.36ZM20.2903 33V12H22.8103L34.0003 28.83V12H36.5203V33H34.0003L22.8103 16.17V33H20.2903ZM40.9739 33V12H43.4939V33H40.9739ZM52.8666 33V14.07H46.5966V12H61.6566V14.07H55.3866V33H52.8666ZM72.8597 33.36C70.7997 33.36 69.0197 32.91 67.5197 32.01C66.0397 31.09 64.8897 29.82 64.0697 28.2C63.2497 26.56 62.8397 24.66 62.8397 22.5C62.8397 20.36 63.2497 18.48 64.0697 16.86C64.8897 15.22 66.0397 13.94 67.5197 13.02C69.0197 12.1 70.7997 11.64 72.8597 11.64C75.2597 11.64 77.2097 12.22 78.7097 13.38C80.2297 14.52 81.1997 16.12 81.6197 18.18H78.8297C78.5097 16.88 77.8497 15.84 76.8497 15.06C75.8697 14.26 74.5397 13.86 72.8597 13.86C71.3597 13.86 70.0497 14.21 68.9297 14.91C67.8097 15.59 66.9397 16.58 66.3197 17.88C65.7197 19.16 65.4197 20.7 65.4197 22.5C65.4197 24.3 65.7197 25.85 66.3197 27.15C66.9397 28.43 67.8097 29.42 68.9297 30.12C70.0497 30.8 71.3597 31.14 72.8597 31.14C74.5397 31.14 75.8697 30.76 76.8497 30C77.8497 29.22 78.5097 28.19 78.8297 26.91H81.6197C81.1997 28.93 80.2297 30.51 78.7097 31.65C77.2097 32.79 75.2597 33.36 72.8597 33.36ZM85.2415 33V12H87.7615V21.27H98.6515V12H101.171V33H98.6515V23.34H87.7615V33H85.2415Z" fill="black"/>
</svg>
