<svg width="149" height="46" viewBox="0 0 149 46" fill="none" xmlns="http://www.w3.org/2000/svg">
<path d="M47.7666 33V12H56.1966C58.3766 12 60.0366 12.51 61.1766 13.53C62.3366 14.53 62.9166 15.82 62.9166 17.4C62.9166 18.72 62.5566 19.78 61.8366 20.58C61.1366 21.36 60.2766 21.89 59.2566 22.17C60.4566 22.41 61.4466 23.01 62.2266 23.97C63.0066 24.91 63.3966 26.01 63.3966 27.27C63.3966 28.93 62.7966 30.3 61.5966 31.38C60.3966 32.46 58.6966 33 56.4966 33H47.7666ZM51.6066 20.82H55.6266C56.7066 20.82 57.5366 20.57 58.1166 20.07C58.6966 19.57 58.9866 18.86 58.9866 17.94C58.9866 17.06 58.6966 16.37 58.1166 15.87C57.5566 15.35 56.7066 15.09 55.5666 15.09H51.6066V20.82ZM51.6066 29.88H55.8966C57.0366 29.88 57.9166 29.62 58.5366 29.1C59.1766 28.56 59.4966 27.81 59.4966 26.85C59.4966 25.87 59.1666 25.1 58.5066 24.54C57.8466 23.98 56.9566 23.7 55.8366 23.7H51.6066V29.88ZM72.1823 33.36C70.3223 33.36 68.8823 32.78 67.8623 31.62C66.8623 30.46 66.3623 28.76 66.3623 26.52V18.12H70.1723V26.16C70.1723 27.44 70.4323 28.42 70.9523 29.1C71.4723 29.78 72.2923 30.12 73.4123 30.12C74.4723 30.12 75.3423 29.74 76.0223 28.98C76.7223 28.22 77.0723 27.16 77.0723 25.8V18.12H80.9123V33H77.5223L77.2223 30.48C76.7623 31.36 76.0923 32.06 75.2123 32.58C74.3523 33.1 73.3423 33.36 72.1823 33.36ZM93.6743 33.36C92.5543 33.36 91.5743 33.15 90.7343 32.73C89.8943 32.31 89.2143 31.72 88.6943 30.96L88.2743 33H84.8543V11.4H88.6943V20.25C89.1743 19.59 89.8043 19.01 90.5843 18.51C91.3843 18.01 92.4143 17.76 93.6743 17.76C95.0743 17.76 96.3243 18.1 97.4243 18.78C98.5243 19.46 99.3943 20.39 100.034 21.57C100.674 22.75 100.994 24.09 100.994 25.59C100.994 27.09 100.674 28.43 100.034 29.61C99.3943 30.77 98.5243 31.69 97.4243 32.37C96.3243 33.03 95.0743 33.36 93.6743 33.36ZM92.8643 30C94.0843 30 95.0943 29.59 95.8943 28.77C96.6943 27.95 97.0943 26.89 97.0943 25.59C97.0943 24.29 96.6943 23.22 95.8943 22.38C95.0943 21.54 94.0843 21.12 92.8643 21.12C91.6243 21.12 90.6043 21.54 89.8043 22.38C89.0243 23.2 88.6343 24.26 88.6343 25.56C88.6343 26.86 89.0243 27.93 89.8043 28.77C90.6043 29.59 91.6243 30 92.8643 30ZM113.245 33.36C112.125 33.36 111.145 33.15 110.305 32.73C109.465 32.31 108.785 31.72 108.265 30.96L107.845 33H104.425V11.4H108.265V20.25C108.745 19.59 109.375 19.01 110.155 18.51C110.955 18.01 111.985 17.76 113.245 17.76C114.645 17.76 115.895 18.1 116.995 18.78C118.095 19.46 118.965 20.39 119.605 21.57C120.245 22.75 120.565 24.09 120.565 25.59C120.565 27.09 120.245 28.43 119.605 29.61C118.965 30.77 118.095 31.69 116.995 32.37C115.895 33.03 114.645 33.36 113.245 33.36ZM112.435 30C113.655 30 114.665 29.59 115.465 28.77C116.265 27.95 116.665 26.89 116.665 25.59C116.665 24.29 116.265 23.22 115.465 22.38C114.665 21.54 113.655 21.12 112.435 21.12C111.195 21.12 110.175 21.54 109.375 22.38C108.595 23.2 108.205 24.26 108.205 25.56C108.205 26.86 108.595 27.93 109.375 28.77C110.175 29.59 111.195 30 112.435 30ZM123.995 33V11.4H127.835V33H123.995ZM138.989 33.36C137.489 33.36 136.159 33.04 134.999 32.4C133.839 31.76 132.929 30.86 132.269 29.7C131.609 28.54 131.279 27.2 131.279 25.68C131.279 24.14 131.599 22.77 132.239 21.57C132.899 20.37 133.799 19.44 134.939 18.78C136.099 18.1 137.459 17.76 139.019 17.76C140.479 17.76 141.769 18.08 142.889 18.72C144.009 19.36 144.879 20.24 145.499 21.36C146.139 22.46 146.459 23.69 146.459 25.05C146.459 25.27 146.449 25.5 146.429 25.74C146.429 25.98 146.419 26.23 146.399 26.49H135.089C135.169 27.65 135.569 28.56 136.289 29.22C137.029 29.88 137.919 30.21 138.959 30.21C139.739 30.21 140.389 30.04 140.909 29.7C141.449 29.34 141.849 28.88 142.109 28.32H146.009C145.729 29.26 145.259 30.12 144.599 30.9C143.959 31.66 143.159 32.26 142.199 32.7C141.259 33.14 140.189 33.36 138.989 33.36ZM139.019 20.88C138.079 20.88 137.249 21.15 136.529 21.69C135.809 22.21 135.349 23.01 135.149 24.09H142.559C142.499 23.11 142.139 22.33 141.479 21.75C140.819 21.17 139.999 20.88 139.019 20.88Z" fill="black"/>
<path d="M33.8458 16.4335C33.1978 14.9513 32.3401 13.57 31.2991 12.332C29.7601 10.4473 27.8396 8.90996 25.6639 7.82118C23.4882 6.7324 21.1067 6.11686 18.676 6.01508C16.2454 5.9133 13.8207 6.32758 11.5617 7.23066C9.30262 8.13373 7.26038 9.50513 5.56935 11.2546C3.87833 13.004 2.57687 15.0919 1.75064 17.3807C0.924404 19.6696 0.592123 22.1075 0.77567 24.534C0.959217 26.9605 1.65443 29.3207 2.81555 31.4591C3.97667 33.5975 5.57736 35.4657 7.51229 36.9408C8.75385 37.9061 10.1257 38.6909 11.5871 39.2717C13.636 40.1116 15.8289 40.5442 18.0432 40.5455C22.6138 40.5353 26.994 38.7129 30.2236 35.4776C33.4532 32.2424 35.2686 27.8582 35.272 23.2862C35.2754 20.9279 34.7897 18.5945 33.8458 16.4335V16.4335ZM18.0304 9.51703C20.0189 9.51682 21.9833 9.95156 23.7861 10.7908V10.7908C23.3465 10.9808 22.8843 11.1135 22.4109 11.1856C20.853 11.4112 19.4098 12.1347 18.2968 13.2481C17.1837 14.3614 16.4605 15.805 16.235 17.3633C16.136 18.2372 15.7386 19.0503 15.1099 19.6652C14.4813 20.2801 13.6598 20.6593 12.7841 20.7387C11.2262 20.9643 9.78307 21.6878 8.67002 22.8011C7.55696 23.9145 6.8337 25.3581 6.60819 26.9164C6.53184 27.7474 6.1774 28.5283 5.60222 29.1327V29.1327C4.60982 27.0352 4.164 24.7206 4.30627 22.4044C4.44853 20.0882 5.17424 17.8457 6.41587 15.8854C7.65751 13.9252 9.3747 12.311 11.4077 11.1931C13.4406 10.0752 15.7233 9.48983 18.0432 9.49156L18.0304 9.51703ZM7.49956 32.2024C7.65237 32.0623 7.80517 31.9349 7.95798 31.7821C9.09085 30.6834 9.81802 29.2331 10.0209 27.6679C10.1031 26.7881 10.4958 25.9662 11.1287 25.3497C11.7377 24.7156 12.5574 24.326 13.4335 24.2543C14.9914 24.0287 16.4345 23.3052 17.5476 22.1918C18.6606 21.0785 19.3839 19.6349 19.6094 18.0766C19.6645 17.1563 20.0593 16.2893 20.7173 15.6437C21.3413 15.022 22.1688 14.6465 23.0475 14.5865C24.4787 14.3896 25.8135 13.7531 26.8677 12.7651C28.068 13.7612 29.0851 14.9596 29.8729 16.3061C29.8245 16.3715 29.769 16.4313 29.7073 16.4844C29.0995 17.1241 28.2809 17.5222 27.4025 17.6053C25.843 17.827 24.3977 18.5491 23.2839 19.6632C22.1702 20.7773 21.4482 22.2231 21.2266 23.783C21.1369 24.6599 20.7468 25.4787 20.1225 26.1009C19.4983 26.723 18.6782 27.1101 17.8012 27.1966C16.2388 27.4205 14.7903 28.1425 13.6708 29.2554C12.5513 30.3683 11.8205 31.8128 11.5871 33.3743C11.5186 33.9968 11.3049 34.5945 10.9632 35.1193C9.65666 34.3434 8.48654 33.358 7.49956 32.2024V32.2024ZM18.0304 37.1191C16.7383 37.1205 15.4524 36.9404 14.2103 36.5841C14.6352 35.7918 14.9114 34.9284 15.0252 34.0366C15.1145 33.1617 15.5027 32.3443 16.1244 31.7225C16.7461 31.1006 17.5632 30.7123 18.4379 30.623C19.9981 30.3999 21.4441 29.6776 22.5597 28.564C23.6752 27.4504 24.4004 26.0055 24.6265 24.4453C24.7158 23.5704 25.104 22.753 25.7257 22.1312C26.3474 21.5093 27.1645 21.121 28.0392 21.0317C29.2133 20.8789 30.3323 20.4417 31.2991 19.7579C31.8359 21.7933 31.8994 23.9245 31.4849 25.9883C31.0704 28.052 30.1888 29.9933 28.9078 31.6633C27.6268 33.3333 25.9803 34.6876 24.0948 35.6223C22.2093 36.557 20.1348 37.0472 18.0304 37.0554V37.1191Z" fill="black"/>
</svg>
