<svg width="172" height="46" viewBox="0 0 172 46" fill="none" xmlns="http://www.w3.org/2000/svg">
<path d="M25.912 21.1614C25.4294 21.6553 25.0599 22.2515 24.8296 22.9073C24.5994 23.5632 24.5142 24.2626 24.58 24.9558L24.5571 24.9325C24.6248 25.7485 24.5167 26.5696 24.2402 27.3387C23.9638 28.1077 23.5257 28.8061 22.9566 29.3852C22.3874 29.9642 21.701 30.4099 20.945 30.6911C20.1891 30.9723 19.382 31.0824 18.5799 31.0135L18.6028 31.0368C17.6435 30.946 16.6799 31.1584 15.8435 31.6451C15.0071 32.1318 14.3386 32.869 13.9292 33.7564C13.5198 34.6438 13.3893 35.638 13.5557 36.6035C13.722 37.5691 14.177 38.4589 14.8586 39.1518C15.5402 39.8446 16.4153 40.3067 17.3645 40.475C18.3137 40.6434 19.2909 40.5098 20.1627 40.0924C21.0346 39.6751 21.7587 38.9943 22.2363 38.143C22.714 37.2917 22.9219 36.3112 22.8317 35.3352L22.8559 35.3585C22.7882 34.5426 22.8963 33.7214 23.1728 32.9524C23.4492 32.1833 23.8873 31.4849 24.4564 30.9059C25.0256 30.3269 25.7121 29.8812 26.468 29.5999C27.2239 29.3187 28.0311 29.2087 28.8331 29.2776L28.8089 29.2542C29.5926 29.3259 30.3814 29.1952 31.1022 28.8742C31.823 28.5532 32.4525 28.0522 32.9324 27.4178C33.4122 26.7833 33.7269 26.0359 33.8472 25.2448C33.9675 24.4537 33.8896 23.6445 33.6206 22.8922C33.3517 22.1399 32.9004 21.4688 32.3087 20.9412C31.7169 20.4136 31.0038 20.0464 30.2355 19.8738C29.4671 19.7012 28.6684 19.7287 27.9133 19.9538C27.1582 20.1789 26.4711 20.5942 25.9158 21.1614H25.912Z" fill="#242424"/>
<path d="M16.5177 27.9819L16.4935 27.9585C17.1752 28.0284 17.8636 27.9433 18.509 27.7093C19.1543 27.4754 19.7405 27.0984 20.2252 26.6058C20.7098 26.1131 21.0808 25.517 21.3112 24.8606C21.5417 24.2042 21.6259 23.5039 21.5577 22.8103L21.5819 22.8336C21.5142 22.0177 21.6223 21.1965 21.8988 20.4275C22.1752 19.6584 22.6133 18.96 23.1824 18.381C23.7516 17.802 24.4381 17.3563 25.194 17.0751C25.9499 16.7938 26.757 16.6838 27.5591 16.7527L27.5349 16.7294C28.4943 16.821 29.4582 16.6093 30.2951 16.1232C31.132 15.6371 31.8011 14.9001 32.2111 14.0129C32.6212 13.1257 32.7522 12.1313 32.5864 11.1655C32.4205 10.1998 31.9659 9.30953 31.2845 8.61627C30.6031 7.92302 29.728 7.46049 28.7787 7.29178C27.8294 7.12307 26.8521 7.25639 25.98 7.67356C25.1079 8.09073 24.3835 8.77143 23.9057 9.62282C23.4278 10.4742 23.2197 11.4548 23.3098 12.431L23.2869 12.4064C23.3549 13.2224 23.2469 14.0436 22.9705 14.8128C22.6941 15.5819 22.2561 16.2804 21.6869 16.8595C21.1177 17.4386 20.4311 17.8842 19.6751 18.1654C18.9191 18.4466 18.1118 18.5564 17.3097 18.4873L17.3327 18.5119C16.651 18.4421 15.9626 18.5272 15.3172 18.7611C14.6718 18.9951 14.0856 19.372 13.601 19.8647C13.1163 20.3574 12.7454 20.9535 12.5149 21.6099C12.2845 22.2663 12.2003 22.9666 12.2685 23.6602L12.2455 23.6368C12.313 24.4527 12.2047 25.2738 11.9282 26.0427C11.6517 26.8117 11.2136 27.51 10.6445 28.089C10.0754 28.6679 9.38903 29.1136 8.63321 29.395C7.87739 29.6763 7.07034 29.7865 6.26835 29.7178L6.29127 29.7411C5.33181 29.6495 4.36792 29.8611 3.53105 30.3473C2.69419 30.8334 2.0251 31.5704 1.61505 32.4576C1.20501 33.3448 1.07396 34.3391 1.23979 35.3049C1.40562 36.2707 1.86025 37.1609 2.54168 37.8542C3.2231 38.5475 4.09814 39.01 5.04745 39.1787C5.99676 39.3474 6.97411 39.2141 7.8462 38.7969C8.71829 38.3798 9.44266 37.699 9.9205 36.8477C10.3984 35.9963 10.6064 35.0156 10.5163 34.0395L10.5405 34.0628C10.4728 33.2469 10.5809 32.4257 10.8574 31.6567C11.1338 30.8876 11.5719 30.1892 12.141 29.6102C12.7102 29.0312 13.3967 28.5855 14.1526 28.3042C14.9085 28.023 15.7157 27.913 16.5177 27.9819Z" fill="#242424"/>
<path d="M7.98389 25.3816C8.46652 24.8877 8.83604 24.2916 9.06606 23.6357C9.29608 22.9797 9.38093 22.2803 9.31456 21.5871L9.33875 21.6105C9.271 20.7943 9.3792 19.9729 9.65578 19.2036C9.93237 18.4344 10.3707 17.7358 10.9401 17.1567C11.5095 16.5777 12.1964 16.1321 12.9526 15.851C13.7088 15.5699 14.5163 15.4602 15.3185 15.5295L15.2943 15.5062C16.2534 15.5976 17.2169 15.3858 18.0534 14.8997C18.8899 14.4136 19.5586 13.6768 19.9684 12.7898C20.3782 11.9029 20.5091 10.9089 20.3433 9.94351C20.1775 8.97809 19.723 8.08819 19.0418 7.39519C18.3607 6.70219 17.4859 6.23981 16.537 6.07111C15.588 5.9024 14.611 6.03559 13.7392 6.45251C12.8674 6.86942 12.1432 7.54977 11.6654 8.40077C11.1876 9.25177 10.9794 10.232 11.0693 11.2078L11.0463 11.1845C11.114 12.0004 11.0059 12.8216 10.7295 13.5906C10.453 14.3597 10.0149 15.0581 9.4458 15.6371C8.87667 16.2161 8.19018 16.6618 7.43425 16.943C6.67833 17.2243 5.87118 17.3343 5.06915 17.2654L5.09207 17.2887C4.3084 17.2172 3.51967 17.3482 2.79897 17.6693C2.07827 17.9905 1.44891 18.4916 0.969219 19.1261C0.489528 19.7606 0.175022 20.508 0.0548473 21.2991C-0.0653274 22.0901 0.0127162 22.8993 0.281747 23.6515C0.550777 24.4037 1.00209 25.0747 1.59386 25.6022C2.18564 26.1298 2.89872 26.4968 3.66704 26.6694C4.43537 26.8419 5.23406 26.8143 5.98912 26.5892C6.74418 26.3641 7.43117 25.9487 7.98644 25.3816H7.98389Z" fill="#242424"/>
<path d="M53.04 33V12H66.6V15.09H56.88V20.97H64.74V24H56.88V33H53.04ZM69.4734 33V11.4H73.3134V33H69.4734ZM82.8171 33.36C80.9571 33.36 79.5171 32.78 78.4971 31.62C77.4971 30.46 76.9971 28.76 76.9971 26.52V18.12H80.8071V26.16C80.8071 27.44 81.0671 28.42 81.5871 29.1C82.1071 29.78 82.9271 30.12 84.0471 30.12C85.1071 30.12 85.9771 29.74 86.6571 28.98C87.3571 28.22 87.7071 27.16 87.7071 25.8V18.12H91.5471V33H88.1571L87.8571 30.48C87.3971 31.36 86.7271 32.06 85.8471 32.58C84.9871 33.1 83.9771 33.36 82.8171 33.36ZM97.5591 15.81C96.8591 15.81 96.2791 15.6 95.8191 15.18C95.3791 14.76 95.1591 14.23 95.1591 13.59C95.1591 12.95 95.3791 12.43 95.8191 12.03C96.2791 11.61 96.8591 11.4 97.5591 11.4C98.2591 11.4 98.8291 11.61 99.2691 12.03C99.7291 12.43 99.9591 12.95 99.9591 13.59C99.9591 14.23 99.7291 14.76 99.2691 15.18C98.8291 15.6 98.2591 15.81 97.5591 15.81ZM95.6391 33V18.12H99.4791V33H95.6391ZM110.327 33.36C108.927 33.36 107.677 33.02 106.577 32.34C105.477 31.66 104.607 30.73 103.967 29.55C103.327 28.37 103.007 27.03 103.007 25.53C103.007 24.03 103.327 22.7 103.967 21.54C104.607 20.36 105.477 19.44 106.577 18.78C107.677 18.1 108.927 17.76 110.327 17.76C111.447 17.76 112.427 17.97 113.267 18.39C114.107 18.81 114.787 19.4 115.307 20.16V11.4H119.147V33H115.727L115.307 30.87C114.827 31.53 114.187 32.11 113.387 32.61C112.607 33.11 111.587 33.36 110.327 33.36ZM111.137 30C112.377 30 113.387 29.59 114.167 28.77C114.967 27.93 115.367 26.86 115.367 25.56C115.367 24.26 114.967 23.2 114.167 22.38C113.387 21.54 112.377 21.12 111.137 21.12C109.917 21.12 108.907 21.53 108.107 22.35C107.307 23.17 106.907 24.23 106.907 25.53C106.907 26.83 107.307 27.9 108.107 28.74C108.907 29.58 109.917 30 111.137 30ZM136.506 28.56C135.786 28.56 135.116 28.48 134.496 28.32L133.386 29.43C133.726 29.61 134.186 29.76 134.766 29.88C135.346 30 136.286 30.12 137.586 30.24C139.566 30.42 141.006 30.89 141.906 31.65C142.806 32.41 143.256 33.46 143.256 34.8C143.256 35.68 143.016 36.51 142.536 37.29C142.056 38.09 141.316 38.73 140.316 39.21C139.316 39.71 138.036 39.96 136.476 39.96C134.356 39.96 132.646 39.56 131.346 38.76C130.046 37.98 129.396 36.8 129.396 35.22C129.396 33.88 130.046 32.72 131.346 31.74C130.946 31.56 130.596 31.37 130.296 31.17C130.016 30.97 129.766 30.76 129.546 30.54V29.85L132.156 27.09C130.996 26.07 130.416 24.76 130.416 23.16C130.416 22.16 130.656 21.25 131.136 20.43C131.636 19.61 132.336 18.96 133.236 18.48C134.136 18 135.226 17.76 136.506 17.76C137.346 17.76 138.126 17.88 138.846 18.12H144.486V20.46L141.936 20.64C142.336 21.4 142.536 22.24 142.536 23.16C142.536 24.16 142.296 25.07 141.816 25.89C141.336 26.71 140.636 27.36 139.716 27.84C138.816 28.32 137.746 28.56 136.506 28.56ZM136.506 25.62C137.286 25.62 137.926 25.41 138.426 24.99C138.946 24.57 139.206 23.97 139.206 23.19C139.206 22.41 138.946 21.81 138.426 21.39C137.926 20.97 137.286 20.76 136.506 20.76C135.686 20.76 135.026 20.97 134.526 21.39C134.026 21.81 133.776 22.41 133.776 23.19C133.776 23.97 134.026 24.57 134.526 24.99C135.026 25.41 135.686 25.62 136.506 25.62ZM132.906 34.83C132.906 35.57 133.246 36.12 133.926 36.48C134.626 36.86 135.476 37.05 136.476 37.05C137.436 37.05 138.216 36.85 138.816 36.45C139.416 36.07 139.716 35.55 139.716 34.89C139.716 34.35 139.516 33.9 139.116 33.54C138.736 33.18 137.966 32.96 136.806 32.88C135.986 32.82 135.226 32.73 134.526 32.61C133.946 32.93 133.526 33.28 133.266 33.66C133.026 34.04 132.906 34.43 132.906 34.83ZM147.286 33V11.4H151.126V33H147.286ZM160.63 33.36C158.77 33.36 157.33 32.78 156.31 31.62C155.31 30.46 154.81 28.76 154.81 26.52V18.12H158.62V26.16C158.62 27.44 158.88 28.42 159.4 29.1C159.92 29.78 160.74 30.12 161.86 30.12C162.92 30.12 163.79 29.74 164.47 28.98C165.17 28.22 165.52 27.16 165.52 25.8V18.12H169.36V33H165.97L165.67 30.48C165.21 31.36 164.54 32.06 163.66 32.58C162.8 33.1 161.79 33.36 160.63 33.36Z" fill="#242424"/>
</svg>
