<svg width="44" height="44" viewBox="0 0 44 44" fill="none" xmlns="http://www.w3.org/2000/svg">
<path d="M38.3674 7.95501C37.431 7.01819 36.3192 6.27503 35.0955 5.768C33.8718 5.26097 32.5603 5 31.2357 5C29.9111 5 28.5996 5.26097 27.3759 5.768C26.1522 6.27503 25.0404 7.01819 24.104 7.95501L22.1607 9.89835L20.2174 7.95501C18.3259 6.06358 15.7606 5.00098 13.0857 5.00098C10.4108 5.00098 7.84547 6.06358 5.95403 7.95501C4.0626 9.84645 3 12.4118 3 15.0867C3 17.7616 4.0626 20.3269 5.95403 22.2183L22.1607 38.425L38.3674 22.2183C39.3042 21.282 40.0473 20.1702 40.5544 18.9465C41.0614 17.7228 41.3224 16.4112 41.3224 15.0867C41.3224 13.7621 41.0614 12.4505 40.5544 11.2269C40.0473 10.0032 39.3042 8.8914 38.3674 7.95501Z" stroke="black" stroke-width="3" stroke-linecap="round" stroke-linejoin="round"/>
</svg>
