<svg width="186" height="46" viewBox="0 0 186 46" fill="none" xmlns="http://www.w3.org/2000/svg">
<path d="M46.04 33V12H49.88V20.73H59.3V12H63.14V33H59.3V23.85H49.88V33H46.04ZM69.2016 15.81C68.5016 15.81 67.9216 15.6 67.4616 15.18C67.0216 14.76 66.8016 14.23 66.8016 13.59C66.8016 12.95 67.0216 12.43 67.4616 12.03C67.9216 11.61 68.5016 11.4 69.2016 11.4C69.9016 11.4 70.4716 11.61 70.9116 12.03C71.3716 12.43 71.6016 12.95 71.6016 13.59C71.6016 14.23 71.3716 14.76 70.9116 15.18C70.4716 15.6 69.9016 15.81 69.2016 15.81ZM67.2816 33V18.12H71.1216V33H67.2816ZM75.1297 33V11.4H78.9697V24.15L84.2497 18.12H88.8097L82.7197 24.9L89.7997 33H84.9997L78.9697 25.53V33H75.1297ZM92.1805 33V11.4H96.0205V24.15L101.3 18.12H105.86L99.7705 24.9L106.85 33H102.05L96.0205 25.53V33H92.1805ZM115.231 33.36C113.731 33.36 112.401 33.04 111.241 32.4C110.081 31.76 109.171 30.86 108.511 29.7C107.851 28.54 107.521 27.2 107.521 25.68C107.521 24.14 107.841 22.77 108.481 21.57C109.141 20.37 110.041 19.44 111.181 18.78C112.341 18.1 113.701 17.76 115.261 17.76C116.721 17.76 118.011 18.08 119.131 18.72C120.251 19.36 121.121 20.24 121.741 21.36C122.381 22.46 122.701 23.69 122.701 25.05C122.701 25.27 122.691 25.5 122.671 25.74C122.671 25.98 122.661 26.23 122.641 26.49H111.331C111.411 27.65 111.811 28.56 112.531 29.22C113.271 29.88 114.161 30.21 115.201 30.21C115.981 30.21 116.631 30.04 117.151 29.7C117.691 29.34 118.091 28.88 118.351 28.32H122.251C121.971 29.26 121.501 30.12 120.841 30.9C120.201 31.66 119.401 32.26 118.441 32.7C117.501 33.14 116.431 33.36 115.231 33.36ZM115.261 20.88C114.321 20.88 113.491 21.15 112.771 21.69C112.051 22.21 111.591 23.01 111.391 24.09H118.801C118.741 23.11 118.381 22.33 117.721 21.75C117.061 21.17 116.241 20.88 115.261 20.88ZM125.93 33V18.12H129.32L129.62 20.64C130.08 19.76 130.74 19.06 131.6 18.54C132.48 18.02 133.51 17.76 134.69 17.76C136.53 17.76 137.96 18.34 138.98 19.5C140 20.66 140.51 22.36 140.51 24.6V33H136.67V24.96C136.67 23.68 136.41 22.7 135.89 22.02C135.37 21.34 134.56 21 133.46 21C132.38 21 131.49 21.38 130.79 22.14C130.11 22.9 129.77 23.96 129.77 25.32V33H125.93ZM151.322 33.36C149.882 33.36 148.582 33.03 147.422 32.37C146.282 31.71 145.372 30.8 144.692 29.64C144.032 28.46 143.702 27.1 143.702 25.56C143.702 24.02 144.042 22.67 144.722 21.51C145.402 20.33 146.312 19.41 147.452 18.75C148.612 18.09 149.912 17.76 151.352 17.76C152.772 17.76 154.052 18.09 155.192 18.75C156.352 19.41 157.262 20.33 157.922 21.51C158.602 22.67 158.942 24.02 158.942 25.56C158.942 27.1 158.602 28.46 157.922 29.64C157.262 30.8 156.352 31.71 155.192 32.37C154.032 33.03 152.742 33.36 151.322 33.36ZM151.322 30.03C152.322 30.03 153.192 29.66 153.932 28.92C154.672 28.16 155.042 27.04 155.042 25.56C155.042 24.08 154.672 22.97 153.932 22.23C153.192 21.47 152.332 21.09 151.352 21.09C150.332 21.09 149.452 21.47 148.712 22.23C147.992 22.97 147.632 24.08 147.632 25.56C147.632 27.04 147.992 28.16 148.712 28.92C149.452 29.66 150.322 30.03 151.322 30.03Z" fill="#242424"/>
<path d="M17.8495 7.53082V2H0V40H17.8495V34.4692C14.193 34.4692 10.6863 33.0501 8.10081 30.5241C5.51529 27.9982 4.06276 24.5722 4.06276 21C4.06276 17.4278 5.51529 14.0018 8.10081 11.4759C10.6863 8.94989 14.193 7.53082 17.8495 7.53082Z" fill="#242424"/>
<path d="M17.8496 7.53101V34.4694C21.5061 34.4694 25.0128 33.0503 27.5983 30.5243C30.1838 27.9984 31.6364 24.5724 31.6364 21.0002C31.6364 17.4279 30.1838 14.002 27.5983 11.476C25.0128 8.95008 21.5061 7.53101 17.8496 7.53101Z" fill="#242424"/>
<path d="M169.797 16.758C171.415 16.758 172.727 15.4762 172.727 13.895C172.727 12.3138 171.415 11.032 169.797 11.032C168.178 11.032 166.866 12.3138 166.866 13.895C166.866 15.4762 168.178 16.758 169.797 16.758Z" fill="#242424"/>
</svg>
