<svg width="524" height="268" viewBox="0 0 524 268" fill="none" xmlns="http://www.w3.org/2000/svg">
<rect x="144.105" y="-0.000305176" width="111.032" height="109.682" rx="23.6238" fill="white"/>
<path d="M191.467 50.7034V50.3564C191.467 49.477 192.175 48.7476 193.087 48.687L199.734 48.2455L208.927 61.7114V49.8928L206.561 49.579V49.4142C206.561 48.5244 207.285 47.7902 208.209 47.7431L214.257 47.4349V48.3008C214.257 48.7072 213.953 49.0549 213.537 49.125L212.081 49.3698V68.5097L210.255 69.1346C208.729 69.6567 207.03 69.0979 206.156 67.7865L197.232 54.3901V67.1762L199.979 67.6992L199.941 67.9526C199.821 68.7465 199.132 69.347 198.298 69.3839L191.467 69.6864C191.376 68.8326 192.019 68.0688 192.907 67.9761L193.805 67.8822V50.8341L191.467 50.7034Z" fill="black"/>
<path fill-rule="evenodd" clip-rule="evenodd" d="M207.652 32.5777L180.264 34.4379C178.623 34.5493 177.352 35.8613 177.352 37.4425V63.9427C177.352 65.4284 177.866 66.8719 178.813 68.0458L184.718 75.3642C185.673 76.5474 187.176 77.1989 188.73 77.1037L219.128 75.2423C220.686 75.1469 221.899 73.9042 221.899 72.4032V42.2751C221.899 41.3465 221.428 40.4763 220.636 39.944L211.014 33.4719C210.033 32.8123 208.846 32.4966 207.652 32.5777ZM181.622 37.8559C181.241 37.5754 181.422 36.9909 181.901 36.9567L207.837 35.1061C208.663 35.0472 209.484 35.2735 210.152 35.7446L215.356 39.4122C215.554 39.5514 215.461 39.852 215.217 39.8652L187.751 41.3512C186.919 41.3962 186.099 41.1533 185.438 40.6665L181.622 37.8559ZM186.462 46.0096C186.462 45.122 187.183 44.3888 188.105 44.3389L217.144 42.7656C218.043 42.7169 218.799 43.4042 218.799 44.2693V70.3571C218.799 71.2431 218.081 71.9756 217.161 72.0277L188.305 73.6609C187.305 73.7175 186.462 72.9533 186.462 71.9904V46.0096Z" fill="black"/>
<rect x="144.696" y="0.590289" width="109.851" height="108.501" rx="23.0332" stroke="#3E3E3E" stroke-opacity="0.15" stroke-width="1.18119"/>
<rect x="288.211" y="-0.000305176" width="109.851" height="109.682" rx="23.6238" fill="white"/>
<path d="M362.626 52.9849C365.189 52.9849 367.266 50.9075 367.266 48.3449C367.266 45.7823 365.188 43.7049 362.626 43.7049C360.063 43.7049 357.985 45.7825 357.985 48.3453V52.9849H362.626ZM349.633 52.9849C352.195 52.9849 354.273 50.9073 354.273 48.3445V35.3522C354.273 32.7894 352.195 30.7119 349.633 30.7119C347.07 30.7119 344.992 32.7894 344.992 35.3522V48.3445C344.992 50.9073 347.07 52.9849 349.633 52.9849Z" fill="#2EB67D"/>
<path d="M323.647 56.6966C321.085 56.6966 319.007 58.774 319.007 61.3366C319.007 63.8992 321.085 65.9766 323.648 65.9766C326.21 65.9766 328.288 63.899 328.288 61.3362V56.6966H323.647ZM336.641 56.6966C334.078 56.6966 332 58.7742 332 61.337V74.3293C332 76.8921 334.078 78.9697 336.641 78.9697C339.204 78.9697 341.281 76.8921 341.281 74.3293V61.337C341.281 58.7742 339.204 56.6966 336.641 56.6966Z" fill="#E01E5A"/>
<path d="M344.993 74.3281C344.993 76.8907 347.07 78.9681 349.633 78.9681C352.195 78.9681 354.273 76.8905 354.273 74.3279C354.273 71.7651 352.195 69.6873 349.632 69.6873L344.993 69.6873L344.993 74.3281ZM344.993 61.3347C344.993 63.8975 347.07 65.975 349.633 65.975L362.625 65.975C365.188 65.975 367.266 63.8975 367.266 61.3347C367.266 58.7718 365.188 56.6943 362.625 56.6943L349.633 56.6943C347.07 56.6943 344.993 58.7718 344.993 61.3347Z" fill="#ECB22E"/>
<path d="M341.277 35.3495C341.277 32.7869 339.2 30.7095 336.637 30.7095C334.074 30.7095 331.997 32.7871 331.997 35.3497C331.997 37.9125 334.075 39.9903 336.637 39.9903L341.277 39.9903L341.277 35.3495ZM341.277 48.343C341.277 45.7801 339.199 43.7026 336.637 43.7026L323.644 43.7026C321.081 43.7026 319.004 45.7801 319.004 48.343C319.004 50.9058 321.081 52.9833 323.644 52.9833L336.637 52.9833C339.199 52.9833 341.277 50.9058 341.277 48.343Z" fill="#36C5F0"/>
<rect x="288.802" y="0.590289" width="108.669" height="108.501" rx="23.0332" stroke="#3E3E3E" stroke-opacity="0.15" stroke-width="1.18119"/>
<rect x="432.312" y="-0.000305176" width="109.851" height="109.682" rx="23.6238" fill="white"/>
<path d="M491.936 59.5516C488.914 60.6889 485.527 60.691 482.505 59.5523C481.366 56.5331 481.366 53.1469 482.503 50.1273C485.525 48.988 488.915 48.9878 491.937 50.1271C493.075 53.1459 493.074 56.5329 491.936 59.5516ZM509.199 51.1267H496.189L505.388 41.9327C503.944 39.9059 502.162 38.1255 500.134 36.6826L490.934 45.8767V32.8745C488.479 32.4618 485.961 32.4624 483.506 32.8745V45.8767L474.306 36.6826C472.279 38.1245 470.496 39.9074 469.052 41.9327L478.252 51.1267H465.242C464.921 53.6541 464.817 56.0293 465.242 58.5515H478.252L469.052 67.7455C470.499 69.7753 472.275 71.5499 474.306 72.9963L483.506 63.8015V76.8044C485.961 77.2156 488.479 77.2159 490.934 76.8044V63.8015L500.135 72.9963C502.163 71.552 503.943 69.773 505.388 67.7455L496.187 58.5515H509.199C509.612 56.0998 509.612 53.5784 509.199 51.1267Z" fill="#FF4A00"/>
<rect x="432.903" y="0.590289" width="108.669" height="108.501" rx="23.0332" stroke="#3E3E3E" stroke-opacity="0.15" stroke-width="1.18119"/>
<rect x="494.918" y="155.916" width="109.851" height="109.682" rx="23.6238" fill="#E8F0F0"/>
<rect y="-0.000183105" width="109.851" height="109.682" rx="23.6238" fill="white" fill-opacity="0.3"/>
<rect x="53.1523" y="155.916" width="109.851" height="109.682" rx="23.6238" fill="white" fill-opacity="0.3"/>
<rect x="207.891" y="158.279" width="109.851" height="109.682" rx="23.6238" fill="white"/>
<path d="M254.658 198.811C254.658 199.328 254.617 200.19 254.12 200.75C253.581 201.267 252.753 201.311 252.256 201.311C249.46 201.311 245.582 200.598 242.938 201.698C246.973 194.352 254.791 189.471 254.741 189.892C254.368 192.799 254.658 195.888 254.658 198.811ZM263.024 232.163C263.024 228.587 265.84 225.657 269.319 225.657C270.354 225.657 271.182 226.519 271.182 227.596C271.182 228.328 270.809 228.932 270.23 229.276C269.598 229.671 268.724 229.487 268.159 230.009C267.745 230.354 267.413 230.914 267.413 231.517C267.413 232.163 267.662 232.767 268.076 233.198C268.822 233.973 269.816 234.404 270.892 234.404C273.708 234.404 275.986 232.034 275.986 229.104C275.986 226.475 274.288 224.149 272.052 223.114C268.658 221.349 263.465 222.354 263.065 216.823C262.443 219.748 261.069 224.967 257.35 224.967C246.114 225.662 242.064 216.429 241.281 206.654C241.281 204.542 242.524 203.12 244.097 202.905C246.914 202.905 249.73 202.905 252.546 202.905C253.995 202.905 254.824 202.517 255.362 202C256.066 201.311 256.232 200.32 256.232 199.156C256.232 196.125 256.232 191.465 256.232 190.064C256.232 188.234 257.805 187.134 259.835 187.134C261.03 187.134 262.152 187.176 263.314 187.479C265.84 188.125 266.378 190.796 266.378 190.796C266.378 190.796 271.141 191.658 273.543 192.089C275.821 192.52 281.453 192.908 282.53 198.811C285.056 212.859 283.524 226.475 283.399 226.475C281.619 239.747 271.017 239.101 271.017 239.101C267.163 239.101 263.024 236.433 263.024 232.163ZM275.448 209.282C274.081 209.153 272.922 209.713 272.507 210.791C271.921 212.317 277.974 213.587 277.974 211.48C277.808 210.273 276.814 209.455 275.448 209.282Z" fill="#00A82D"/>
<rect x="208.481" y="158.87" width="108.669" height="108.501" rx="23.0332" stroke="#3E3E3E" stroke-opacity="0.15" stroke-width="1.18119"/>
<rect x="350.812" y="158.279" width="111.032" height="109.682" rx="23.6238" fill="white"/>
<path fill-rule="evenodd" clip-rule="evenodd" d="M406.328 213.118C406.328 208.676 410.068 205.075 414.681 205.075C419.294 205.075 423.034 208.676 423.034 213.118C423.034 217.561 419.294 221.162 414.681 221.162C410.068 221.162 406.328 217.561 406.328 213.118Z" fill="#1ABCFE"/>
<path fill-rule="evenodd" clip-rule="evenodd" d="M389.625 229.206C389.625 224.764 393.365 221.163 397.978 221.163H406.33V229.206C406.33 233.649 402.591 237.25 397.978 237.25C393.365 237.25 389.625 233.649 389.625 229.206Z" fill="#0ACF83"/>
<path fill-rule="evenodd" clip-rule="evenodd" d="M406.332 188.989V205.076H414.685C419.298 205.076 423.037 201.475 423.037 197.032C423.037 192.59 419.298 188.989 414.685 188.989H406.332Z" fill="#FF7262"/>
<path fill-rule="evenodd" clip-rule="evenodd" d="M389.625 197.032C389.625 201.475 393.365 205.076 397.978 205.076H406.33V188.989H397.978C393.365 188.989 389.625 192.59 389.625 197.032Z" fill="#F24E1E"/>
<path fill-rule="evenodd" clip-rule="evenodd" d="M389.625 213.118C389.625 217.561 393.365 221.162 397.978 221.162H406.33V205.075H397.978C393.365 205.075 389.625 208.676 389.625 213.118Z" fill="#A259FF"/>
<rect x="351.403" y="158.87" width="109.851" height="108.501" rx="23.0332" stroke="#3E3E3E" stroke-opacity="0.15" stroke-width="1.18119"/>
</svg>
