<svg width="227" height="223" viewBox="0 0 227 223" fill="none" xmlns="http://www.w3.org/2000/svg">
<path opacity="0.21" d="M163.766 -28.3772C163.766 -31.8935 161.662 -35.0699 158.422 -36.4473C155.181 -37.8247 151.429 -37.1368 148.891 -34.6996L117.649 -4.71041C71.1338 39.9411 31.8296 91.5182 1.13522 148.185C0.412538 149.459 0 150.932 0 152.501C0 157.345 3.9335 161.271 8.78571 161.271H84.5186V287.378C84.5186 290.852 86.5716 293.998 89.754 295.401C92.9365 296.805 96.6487 296.201 99.2207 293.862L113.199 281.15C162.13 236.652 203.656 184.662 236.217 127.133L244.863 111.856C246.4 109.141 246.377 105.814 244.802 103.121C243.228 100.427 240.339 98.7703 237.214 98.7703H163.766V-28.3772Z" fill="#F2F9FB" fill-opacity="0.4"/>
</svg>
