<svg width="36" height="40" viewBox="0 0 36 40" fill="none" xmlns="http://www.w3.org/2000/svg">
<path d="M18.2069 13.0149C14.4974 13.0149 11.4902 16.0221 11.4902 19.7316C11.4902 23.4411 14.4974 26.4482 18.2069 26.4482C21.9164 26.4482 24.9235 23.4411 24.9235 19.7316C24.9235 16.0221 21.9164 13.0149 18.2069 13.0149Z" fill="#295D4E"/>
<path fill-rule="evenodd" clip-rule="evenodd" d="M19.6121 0.730133C18.7382 0.24466 17.6757 0.244659 16.8018 0.730133L1.9218 8.9968C1.00327 9.5071 0.433594 10.4753 0.433594 11.526V27.9372C0.433594 28.9879 1.00326 29.9561 1.9218 30.4664L16.8018 38.7331C17.6757 39.2185 18.7382 39.2185 19.6121 38.7331L34.4921 30.4664C35.4106 29.9561 35.9803 28.9879 35.9803 27.9372V11.526C35.9803 10.4753 35.4106 9.5071 34.4921 8.9968L19.6121 0.730133ZM19.6121 19.2148C19.6121 13.7932 14.17 18.6981 19.5916 18.6981C19.5916 13.2765 25.0132 18.6981 19.5916 18.6981C19.5916 24.1197 25.0336 19.2148 19.6121 19.2148C19.6121 24.6364 14.1905 19.2148 19.6121 19.2148Z" fill="#295D4E"/>
<path d="M18.6837 24.2877H16.617C16.6013 24.0949 16.5935 23.8138 16.5935 23.4443C16.5935 21.8379 17.2433 20.5848 18.5428 19.6852L19.5761 18.9623C20.4059 18.384 20.8208 17.5968 20.8208 16.6008C20.8208 15.8297 20.5781 15.1791 20.0928 14.6489C19.6074 14.1188 18.9185 13.8537 18.0261 13.8537C17.071 13.8537 16.343 14.159 15.842 14.7694C15.341 15.3799 15.0905 16.1028 15.0905 16.9382C15.0905 17.4201 15.1453 17.8137 15.2549 18.1189L12.9768 17.8297C12.8829 17.4924 12.8359 17.1068 12.8359 16.6731C12.8359 15.8859 13.0082 15.1309 13.3526 14.408C13.697 13.6851 14.2763 13.0585 15.0905 12.5284C15.9046 11.9983 16.8832 11.7332 18.0261 11.7332C19.5917 11.7332 20.8364 12.2152 21.7602 13.179C22.6996 14.1429 23.1693 15.2755 23.1693 16.5767C23.1693 18.2635 22.3708 19.6611 20.7738 20.7696L19.6935 21.5166C19.0046 21.9985 18.6602 22.7696 18.6602 23.8299C18.6602 23.9745 18.668 24.1271 18.6837 24.2877ZM16.5465 28.842C16.2491 28.5368 16.1003 28.1673 16.1003 27.7336C16.1003 27.2998 16.2491 26.9304 16.5465 26.6251C16.844 26.3038 17.2041 26.1432 17.6268 26.1432C18.0496 26.1432 18.4097 26.3038 18.7071 26.6251C19.0203 26.9304 19.1768 27.2998 19.1768 27.7336C19.1768 28.1673 19.0203 28.5368 18.7071 28.842C18.4097 29.1473 18.0496 29.2999 17.6268 29.2999C17.2041 29.2999 16.844 29.1473 16.5465 28.842Z" fill="white"/>
</svg>
