<svg width="38" height="44" viewBox="0 0 38 44" fill="none" xmlns="http://www.w3.org/2000/svg">
<path fill-rule="evenodd" clip-rule="evenodd" d="M16.039 4C15.5957 4 15.1866 4.23783 14.9671 4.62298L6.04453 20.2849C4.86177 22.361 4.36543 24.7579 4.62642 27.1329L5.56814 35.7027C5.73569 37.2275 6.93268 38.4352 8.45587 38.6164L14.1013 39.288C17.8282 39.7313 21.6069 39.347 25.1682 38.1625C26.927 37.5775 28.3357 36.2426 29.0144 34.5179L33.5586 22.9697C33.6697 22.6873 33.7465 22.3927 33.7873 22.092C34.132 19.5531 31.9094 17.4113 29.3849 17.8498L20.2761 19.4318C17.3988 19.9316 14.9137 17.3924 15.4752 14.5265L17.2497 5.47087C17.399 4.70883 16.8156 3.99999 16.039 4ZM11.4916 2.64296C12.4225 1.00896 14.1584 1.68485e-05 16.039 2.17976e-10C19.3334 -2.95637e-05 21.8085 3.00714 21.175 6.24003L19.4006 15.2957C19.393 15.3345 19.3971 15.3582 19.4024 15.3752C19.409 15.3961 19.4225 15.4207 19.4448 15.4435C19.4671 15.4662 19.4914 15.4803 19.5122 15.4873C19.5291 15.493 19.5527 15.4976 19.5916 15.4908L28.7004 13.9088C33.8903 13.0074 38.4595 17.4104 37.751 22.6301C37.6671 23.2482 37.5092 23.8539 37.2808 24.4344L32.7366 35.9825C31.6238 38.8104 29.3142 40.999 26.4307 41.9581C22.3111 43.3283 17.9399 43.7728 13.6288 43.26L7.98338 42.5884C4.61216 42.1874 1.96291 39.5143 1.59207 36.1397L0.650357 27.5699C0.297249 24.3565 0.968766 21.1138 2.56897 18.3049L11.4916 2.64296Z" fill="#5C45D9"/>
</svg>
