<svg width="21" height="40" viewBox="0 0 21 40" fill="none" xmlns="http://www.w3.org/2000/svg">
<path d="M14.3806 0.905342C11.1967 0.542946 7.98196 0.542946 4.79805 0.905342L1.50105 1.28061C1.01335 1.33612 0.632009 1.72705 0.58862 2.21597L0.335195 5.07164C-0.090898 9.87298 -0.0908984 14.7026 0.335194 19.504L0.58862 22.3596C0.635939 22.8928 1.08261 23.3016 1.61791 23.3016H5.89886V38.6C5.89886 39.039 6.17623 39.4301 6.59054 39.5752C7.00485 39.7204 7.46564 39.5879 7.7396 39.2449L8.54704 38.2339C13.3611 32.2065 17.1946 25.4576 19.906 18.2359L20.2996 17.1876C20.4187 16.8702 20.3747 16.5146 20.1816 16.236C19.9886 15.9573 19.6712 15.7911 19.3322 15.7911H13.7251L18.5311 2.66254C18.6401 2.36499 18.6064 2.03391 18.4399 1.76433C18.2734 1.49474 17.9925 1.31644 17.6776 1.28061L14.3806 0.905342Z" fill="#295D4E"/>
</svg>
